<svg viewBox="0 0 1368 1368" width="1368" height="1368" x="0" y="0" xmlns="http://www.w3.org/2000/svg"><defs><pattern id="pattern" x="0" y="0" width="8" height="8" patternUnits="userSpaceOnUse"><polygon points="0,4 0,8 8,0 4,0" fill="#ffffff"></polygon><polygon points="4,8 8,8 8,4" fill="#ffffff"></polygon></pattern><mask id="grating" x="0" y="0" width="1" height="1"><rect x="0" y="0" width="100%" height="100%" fill="url(#pattern)"></rect></mask></defs><g id="horizStripes"><rect fill="#70714D" height="32" width="100%" x="0" y="0"></rect><rect fill="#5D1913" height="416" width="100%" x="0" y="32"></rect><rect fill="#120D0D" height="160" width="100%" x="0" y="448"></rect><rect fill="#4B2E24" height="72" width="100%" x="0" y="608"></rect><rect fill="#70714D" height="16" width="100%" x="0" y="680"></rect><rect fill="#EF8F06" height="8" width="100%" x="0" y="696"></rect><rect fill="#70714D" height="16" width="100%" x="0" y="704"></rect><rect fill="#4B2E24" height="72" width="100%" x="0" y="720"></rect><rect fill="#120D0D" height="160" width="100%" x="0" y="792"></rect><rect fill="#5D1913" height="416" width="100%" x="0" y="952"></rect></g><g id="vertStripes" mask="url(#grating)"><rect fill="#70714D" height="100%" width="32" x="0" y="0"></rect><rect fill="#5D1913" height="100%" width="416" x="32" y="0"></rect><rect fill="#120D0D" height="100%" width="160" x="448" y="0"></rect><rect fill="#4B2E24" height="100%" width="72" x="608" y="0"></rect><rect fill="#70714D" height="100%" width="16" x="680" y="0"></rect><rect fill="#EF8F06" height="100%" width="8" x="696" y="0"></rect><rect fill="#70714D" height="100%" width="16" x="704" y="0"></rect><rect fill="#4B2E24" height="100%" width="72" x="720" y="0"></rect><rect fill="#120D0D" height="100%" width="160" x="792" y="0"></rect><rect fill="#5D1913" height="100%" width="416" x="952" y="0"></rect></g></svg>
